HIERARCHY
ROOT hip
{
  OFFSET 0.00112043 5.09927 -9.65472
  CHANNELS 6 Xposition Yposition Zposition Zrotation Xrotation Yrotation
  JOINT abdomen
  {
    OFFSET 0 -1.186 -1.5018
    CHANNELS 3 Zrotation Xrotation Yrotation
    JOINT abdomen2
    {
      OFFSET 0 9.964 0.2134
      CHANNELS 3 Zrotation Xrotation Yrotation
      JOINT chest
      {
        OFFSET 0 13.134 -3.2573
        CHANNELS 3 Zrotation Xrotation Yrotation
        JOINT neck
        {
          OFFSET 0 20.686 -1.6905
          CHANNELS 3 Zrotation Xrotation Yrotation
          JOINT head
          {
            OFFSET 0 7.238 -0.1237
            CHANNELS 3 Zrotation Xrotation Yrotation
            End Site
            {
              OFFSET 0 0 0
            }
          }
        }
        JOINT lCollar
        {
          OFFSET 1.7069 20.075 5.0056
          CHANNELS 3 Zrotation Xrotation Yrotation
          JOINT lShldr
          {
            OFFSET 13.6458 -0.047 -4.849
            CHANNELS 3 Zrotation Xrotation Yrotation
            JOINT lForeArm
            {
              OFFSET 28.3255 -0.9759 2.2888
              CHANNELS 3 Zrotation Xrotation Yrotation
              JOINT lHand
              {
                OFFSET 22.1583 -0.53 10.8316
                CHANNELS 3 Zrotation Xrotation Yrotation
                JOINT lThumb1
                {
                  OFFSET 0.786 0.112 2.5817
                  CHANNELS 3 Zrotation Xrotation Yrotation
                  JOINT lThumb2
                  {
                    OFFSET 0.3601 -0.878 4.2331
                    CHANNELS 3 Zrotation Xrotation Yrotation
                    JOINT lThumb2_End
                    {
                      OFFSET 1.8127 -1.216 2.2227
                      CHANNELS 3 Zrotation Xrotation Yrotation
                      End Site
                      {
                        OFFSET 0.0181 -0.0122 0.0222
                      }
                    }
                  }
                }
                JOINT lCarpal1
                {
                  OFFSET 0.9571 1.114 1.7695
                  CHANNELS 3 Zrotation Xrotation Yrotation
                  JOINT lIndex1
                  {
                    OFFSET 4.1246 0.487 4.1451
                    CHANNELS 3 Zrotation Xrotation Yrotation
                    JOINT lIndex2
                    {
                      OFFSET 3.4052 -1.454 2.7682
                      CHANNELS 3 Zrotation Xrotation Yrotation
                      JOINT lIndex2_End
                      {
                        OFFSET 1.4531 -1.795 1.2713
                        CHANNELS 3 Zrotation Xrotation Yrotation
                        End Site
                        {
                          OFFSET 0.0145 -0.0179 0.0127
                        }
                      }
                    }
                  }
                  JOINT lMid1
                  {
                    OFFSET 5.6954 0.21 2.1184
                    CHANNELS 3 Zrotation Xrotation Yrotation
                    JOINT lMid2
                    {
                      OFFSET 3.9766 -1.54 2.3863
                      CHANNELS 3 Zrotation Xrotation Yrotation
                      JOINT lMid2_End
                      {
                        OFFSET 1.4042 -1.926 1.125
                        CHANNELS 3 Zrotation Xrotation Yrotation
                        End Site
                        {
                          OFFSET 0.014 -0.0193 0.0113
                        }
                      }
                    }
                  }
                }
                JOINT lCarpal2
                {
                  OFFSET 2.0956 0.66 -0.3894
                  CHANNELS 3 Zrotation Xrotation Yrotation
                  JOINT lRing1
                  {
                    OFFSET 5.0395 -0.09 2.4971
                    CHANNELS 3 Zrotation Xrotation Yrotation
                    JOINT lRing2
                    {
                      OFFSET 3.7921 -1.552 1.4806
                      CHANNELS 3 Zrotation Xrotation Yrotation
                      JOINT lRing2_End
                      {
                        OFFSET 1.4655 -1.808 0.9609
                        CHANNELS 3 Zrotation Xrotation Yrotation
                        End Site
                        {
                          OFFSET 0.0147 -0.0181 0.0096
                        }
                      }
                    }
                  }
                  JOINT lPinky1
                  {
                    OFFSET 4.9141 -1.269 0.3591
                    CHANNELS 3 Zrotation Xrotation Yrotation
                    JOINT lPinky2
                    {
                      OFFSET 3.1477 -1.685 0.8462
                      CHANNELS 3 Zrotation Xrotation Yrotation
                      JOINT lPinky2_End
                      {
                        OFFSET 0.8055 -1.585 0.7955
                        CHANNELS 3 Zrotation Xrotation Yrotation
                        End Site
                        {
                          OFFSET 0.0081 -0.0158 0.008
                        }
                      }
                    }
                  }
                }
              }
            }
          }
        }
        JOINT rCollar
        {
          OFFSET -1.7069 20.075 5.0056
          CHANNELS 3 Zrotation Xrotation Yrotation
          JOINT rShldr
          {
            OFFSET -13.6458 -0.047 -4.849
            CHANNELS 3 Zrotation Xrotation Yrotation
            JOINT rForeArm
            {
              OFFSET -28.3255 -0.9759 2.2888
              CHANNELS 3 Zrotation Xrotation Yrotation
              JOINT rHand
              {
                OFFSET -22.1583 -0.53 10.8316
                CHANNELS 3 Zrotation Xrotation Yrotation
                JOINT rThumb1
                {
                  OFFSET -0.786 0.112 2.5817
                  CHANNELS 3 Zrotation Xrotation Yrotation
                  JOINT rThumb2
                  {
                    OFFSET -0.3601 -0.878 4.2331
                    CHANNELS 3 Zrotation Xrotation Yrotation
                    JOINT rThumb2_End
                    {
                      OFFSET -1.8127 -1.216 2.2227
                      CHANNELS 3 Zrotation Xrotation Yrotation
                      End Site
                      {
                        OFFSET -0.0181 -0.0122 0.0222
                      }
                    }
                  }
                }
                JOINT rCarpal1
                {
                  OFFSET -0.9571 1.114 1.7695
                  CHANNELS 3 Zrotation Xrotation Yrotation
                  JOINT rIndex1
                  {
                    OFFSET -4.1246 0.487 4.1451
                    CHANNELS 3 Zrotation Xrotation Yrotation
                    JOINT rIndex2
                    {
                      OFFSET -3.4052 -1.454 2.7682
                      CHANNELS 3 Zrotation Xrotation Yrotation
                      JOINT rIndex2_End
                      {
                        OFFSET -1.4531 -1.795 1.2713
                        CHANNELS 3 Zrotation Xrotation Yrotation
                        End Site
                        {
                          OFFSET -0.0145 -0.018 0.0127
                        }
                      }
                    }
                  }
                  JOINT rMid1
                  {
                    OFFSET -5.6954 0.21 2.1184
                    CHANNELS 3 Zrotation Xrotation Yrotation
                    JOINT rMid2
                    {
                      OFFSET -3.9766 -1.54 2.3863
                      CHANNELS 3 Zrotation Xrotation Yrotation
                      JOINT rMid2_End
                      {
                        OFFSET -1.4042 -1.926 1.125
                        CHANNELS 3 Zrotation Xrotation Yrotation
                        End Site
                        {
                          OFFSET -0.014 -0.0193 0.0113
                        }
                      }
                    }
                  }
                }
                JOINT rCarpal2
                {
                  OFFSET -2.0956 0.66 -0.3894
                  CHANNELS 3 Zrotation Xrotation Yrotation
                  JOINT rRing1
                  {
                    OFFSET -5.0395 -0.09 2.4971
                    CHANNELS 3 Zrotation Xrotation Yrotation
                    JOINT rRing2
                    {
                      OFFSET -3.7921 -1.552 1.4806
                      CHANNELS 3 Zrotation Xrotation Yrotation
                      JOINT rRing2_End
                      {
                        OFFSET -1.4655 -1.808 0.9609
                        CHANNELS 3 Zrotation Xrotation Yrotation
                        End Site
                        {
                          OFFSET -0.0147 -0.0181 0.0096
                        }
                      }
                    }
                  }
                  JOINT rPinky1
                  {
                    OFFSET -4.9141 -1.269 0.3592
                    CHANNELS 3 Zrotation Xrotation Yrotation
                    JOINT rPinky2
                    {
                      OFFSET -3.1477 -1.685 0.8462
                      CHANNELS 3 Zrotation Xrotation Yrotation
                      JOINT rPinky2_End
                      {
                        OFFSET -0.8055 -1.585 0.7955
                        CHANNELS 3 Zrotation Xrotation Yrotation
                        End Site
                        {
                          OFFSET -0.0081 -0.0158 0.008
                        }
                      }
                    }
                  }
                }
              }
            }
          }
        }
      }
    }
  }
  JOINT lThigh
  {
    OFFSET 8.367 -8.2066 0.5982
    CHANNELS 3 Zrotation Xrotation Yrotation
    JOINT lShin
    {
      OFFSET 2.1923 -43.463 -0.4932
      CHANNELS 3 Zrotation Xrotation Yrotation
      JOINT lFoot
      {
        OFFSET 0.7333 -45.8593 -2.6451
        CHANNELS 3 Zrotation Xrotation Yrotation
        End Site
        {
          OFFSET 2.6618 -4.2699 12.3931
        }
      }
    }
  }
  JOINT rThigh
  {
    OFFSET -8.367 -8.2066 0.5982
    CHANNELS 3 Zrotation Xrotation Yrotation
    JOINT rShin
    {
      OFFSET -2.1923 -43.463 -0.4931
      CHANNELS 3 Zrotation Xrotation Yrotation
      JOINT rFoot
      {
        OFFSET -0.7333 -45.8593 -2.6451
        CHANNELS 3 Zrotation Xrotation Yrotation
        End Site
        {
          OFFSET -2.6618 -4.2699 12.3931
        }
      }
    }
  }
}
MOTION
Frames:	4
Frame Time:	0.0333333
0 91.7903 2.51682 0 0 -0 0 0 -0 0 0 -0 0 0 -0 0 0 -0 0 0 -0 0 0 -0 1.66051 0.0835086 5.75766 -0.0175111 0.895433 15.7816 7.95139e-016 -1.98785e-016 -0 5.46658e-016 -3.97569e-016 -0 5.96354e-016 0 -0 3.97569e-016 1.98785e-016 9.54166e-015 1.49089e-016 -3.97569e-016 -0 6.4605e-016 0 3.18055e-015 5.96354e-016 0 3.18055e-015 8.94531e-016 -1.98785e-016 6.36111e-015 6.4605e-016 0 3.18055e-015 5.96354e-016 0 3.18055e-015 8.94531e-016 -1.98785e-016 6.36111e-015 1.49089e-016 -3.97569e-016 -0 6.4605e-016 0 3.18055e-015 5.96354e-016 0 3.18055e-015 8.94531e-016 -1.98785e-016 6.36111e-015 6.4605e-016 0 3.18055e-015 5.96354e-016 0 3.18055e-015 8.94531e-016 -1.98785e-016 6.36111e-015 0 0 -0 -1.4496 0.0636048 -5.0245 -1.74811 1.20616 -16.8394 -1.19271e-015 1.98785e-016 -3.18055e-015 -3.97569e-016 1.98785e-016 -3.18055e-015 -2.98177e-016 1.98785e-016 -3.18055e-015 -2.98177e-016 3.97569e-016 -0 4.96962e-016 0 -6.36111e-015 -9.93923e-017 3.97569e-016 -0 -8.94531e-016 5.96354e-016 -0 -3.97569e-016 3.97569e-016 -0 -9.93923e-017 3.97569e-016 -0 -8.94531e-016 5.96354e-016 -0 -3.97569e-016 3.97569e-016 -0 4.96962e-016 0 -6.36111e-015 -9.93923e-017 3.97569e-016 -0 -8.94531e-016 5.96354e-016 -0 -3.97569e-016 3.97569e-016 -0 -9.93923e-017 3.97569e-016 -0 -8.94531e-016 5.96354e-016 -0 -3.97569e-016 3.97569e-016 -0 -4.66111 -0.998717 0.12318 0.00986924 1.54847 0.176523 4.65186 -0.572283 -0.254274 4.66111 -0.998765 -0.123176 -0.00986867 1.54869 -0.176537 -4.65186 -0.572453 0.25427 
42.3098 13.4079 45.5627 0 70.9971 -0 -0.323988 3.8084 -0.046821 -0.647001 7.61703 -0.0722429 -0.647001 7.61703 -0.0722427 -1.39733e-006 -24.0062 -3.11618e-007 -0.0600576 -22.3427 -0.0243367 -8.00266 -0.194442 -0.00133043 -78.133 -10.8867 -57.6142 45.995 -31.4628 -92.8728 -3.82919 9.2555 -0.44811 1.00933e-006 -1.34895e-006 -2.29561e-007 2.86294e-006 -1.0141e-006 -5.01222e-007 5.04663e-007 -6.74475e-007 -1.1478e-007 -1.78906e-015 8.94531e-016 -0 1.00933e-006 -1.34895e-006 -2.29561e-007 2.86294e-006 -1.0141e-006 -5.01222e-007 5.04663e-007 -6.74475e-007 -1.1478e-007 1.00933e-006 -1.34895e-006 -2.29561e-007 2.86294e-006 -1.0141e-006 -5.01222e-007 5.04663e-007 -6.74475e-007 -1.1478e-007 -1.78906e-015 8.94531e-016 -0 1.00933e-006 -1.34895e-006 -2.29561e-007 2.86294e-006 -1.0141e-006 -5.01222e-007 5.04663e-007 -6.74475e-007 -1.1478e-007 1.00933e-006 -1.34895e-006 -2.29561e-007 2.86294e-006 -1.0141e-006 -5.01222e-007 5.04663e-007 -6.74475e-007 -1.1478e-007 7.99915 -0.1947 -0.00216384 78.2434 -10.7119 58.3657 -46.2745 -32.506 92.0293 3.75112 9.26136 0.697125 8.09294e-007 -1.705e-006 -5.40453e-008 -5.20143e-007 -6.64718e-007 1.02137e-007 -5.20143e-007 -6.64718e-007 1.02137e-007 -1.04362e-015 -6.02566e-016 -3.18055e-015 8.09294e-007 -1.705e-006 -5.40453e-008 -5.20143e-007 -6.64718e-007 1.02137e-007 -5.20143e-007 -6.64718e-007 1.02137e-007 8.09294e-007 -1.705e-006 -5.40453e-008 -5.20143e-007 -6.64718e-007 1.02137e-007 -5.20143e-007 -6.64718e-007 1.02137e-007 -1.04362e-015 -6.02566e-016 -3.18055e-015 8.09294e-007 -1.705e-006 -5.40453e-008 -5.20143e-007 -6.64718e-007 1.02137e-007 -5.20143e-007 -6.64718e-007 1.02137e-007 8.09294e-007 -1.705e-006 -5.40453e-008 -5.20143e-007 -6.64718e-007 1.02137e-007 -5.20143e-007 -6.64718e-007 1.02137e-007 110.657 -34.4178 98.1256 -177.111 51.2654 -174.216 10.8308 25.742 3.73761 -110.659 -34.4113 -98.1261 177.107 51.2663 174.214 -10.8347 25.7416 -3.73999 
42.3111 13.4196 45.4848 0 70.9971 -0 -0.32429 3.88615 -0.0467899 -0.647633 7.77254 -0.0717221 -0.647634 7.77256 -0.071722 -2.68858e-005 -24.5617 -1.23409e-005 -0.0602523 -22.6759 -0.0247633 -7.80946 -0.822311 0.396232 -78.2133 -10.6683 -57.6153 45.995 -31.4628 -92.8728 -3.99159 9.01567 -0.106003 5.03647e-007 -6.7523e-007 -1.14781e-007 5.03647e-007 -6.7523e-007 -1.14781e-007 5.03647e-007 -6.7523e-007 -1.14781e-007 -3.97569e-016 -1.54058e-015 -6.36111e-015 5.03647e-007 -6.7523e-007 -1.14781e-007 5.03647e-007 -6.7523e-007 -1.14781e-007 5.03647e-007 -6.7523e-007 -1.14781e-007 5.03647e-007 -6.7523e-007 -1.14781e-007 5.03647e-007 -6.7523e-007 -1.14781e-007 5.03647e-007 -6.7523e-007 -1.14781e-007 -3.97569e-016 -1.54058e-015 -6.36111e-015 5.03647e-007 -6.7523e-007 -1.14781e-007 5.03647e-007 -6.7523e-007 -1.14781e-007 5.03647e-007 -6.7523e-007 -1.14781e-007 5.03647e-007 -6.7523e-007 -1.14781e-007 5.03647e-007 -6.7523e-007 -1.14781e-007 5.03647e-007 -6.7523e-007 -1.14781e-007 7.82867 -0.834024 -0.418095 78.3228 -10.4918 58.3612 -46.2746 -32.506 92.0292 3.93031 9.02591 0.355591 4.18632e-007 1.59289e-006 -1.32138e-006 5.1912e-007 6.65516e-007 -1.02137e-007 5.1912e-007 6.65516e-007 -1.02137e-007 -6.70898e-016 -1.86982e-015 -1.59028e-015 4.18632e-007 1.59289e-006 -1.32138e-006 5.1912e-007 6.65516e-007 -1.02137e-007 5.1912e-007 6.65516e-007 -1.02137e-007 4.18632e-007 1.59289e-006 -1.32138e-006 5.1912e-007 6.65516e-007 -1.02137e-007 5.1912e-007 6.65516e-007 -1.02137e-007 -6.70898e-016 -1.86982e-015 -1.59028e-015 4.18632e-007 1.59289e-006 -1.32138e-006 5.1912e-007 6.65516e-007 -1.02137e-007 5.1912e-007 6.65516e-007 -1.02137e-007 4.18632e-007 1.59289e-006 -1.32138e-006 5.1912e-007 6.65516e-007 -1.02137e-007 5.1912e-007 6.65516e-007 -1.02137e-007 110.807 -34.2728 98.2509 -177.111 51.274 -174.21 11.0386 25.771 3.63062 -110.806 -34.2717 -98.207 177.108 51.2763 174.205 -11.0629 25.7868 -3.56562 
42.3124 13.4314 45.4069 0 70.9971 -0 -0.324586 3.96393 -0.0467566 -0.648258 7.92804 -0.0711963 -0.648258 7.92805 -0.0711965 -1.24949e-006 -25.1165 -2.78418e-007 -0.0604087 -23.0093 -0.0248244 -7.61172 -1.44917 0.796296 -78.2936 -10.4499 -57.616 45.995 -31.4628 -92.8728 -4.15245 8.77484 0.235318 1.0053e-006 -1.35193e-006 -2.29578e-007 1.06186e-006 -5.41248e-007 1.22944e-006 -9.93923e-017 6.26172e-015 -0 5.96354e-016 6.55989e-015 -0 1.0053e-006 -1.35193e-006 -2.29578e-007 1.06186e-006 -5.41248e-007 1.22944e-006 5.96354e-016 2.68359e-015 -0 1.0053e-006 -1.35193e-006 -2.29578e-007 1.06186e-006 -5.41248e-007 1.22944e-006 5.96354e-016 2.68359e-015 -0 5.96354e-016 6.55989e-015 -0 1.0053e-006 -1.35193e-006 -2.29578e-007 1.06186e-006 -5.41248e-007 1.22944e-006 5.96354e-016 2.68359e-015 -0 1.0053e-006 -1.35193e-006 -2.29578e-007 1.06186e-006 -5.41248e-007 1.22944e-006 5.96354e-016 2.68359e-015 -0 7.65338 -1.47248 -0.836348 78.4021 -10.2718 58.3563 -46.2745 -32.506 92.0293 4.108 8.78935 0.0149361 6.95746e-016 -3.18055e-015 1.59028e-015 -1.43672e-006 1.96296e-006 -1.07721e-006 -4.96962e-017 3.47873e-016 1.59028e-015 -9.93923e-017 -3.4104e-015 -0 2.33572e-015 -6.40459e-015 1.11319e-014 -1.43672e-006 1.96296e-006 -1.07721e-006 -7.70291e-016 6.32384e-015 -0 2.33572e-015 -6.40459e-015 1.11319e-014 -1.43672e-006 1.96296e-006 -1.07721e-006 -7.70291e-016 6.32384e-015 -0 -9.93923e-017 -3.4104e-015 -0 2.33572e-015 -6.40459e-015 1.11319e-014 -1.43672e-006 1.96296e-006 -1.07721e-006 -7.70291e-016 6.32384e-015 -0 2.33572e-015 -6.40459e-015 1.11319e-014 -1.43672e-006 1.96296e-006 -1.07721e-006 -7.70291e-016 6.32384e-015 -0 110.957 -34.1277 98.3757 -177.111 51.2824 -174.204 11.2466 25.7995 3.52356 -110.953 -34.132 -98.2873 177.109 51.2862 174.195 -11.2914 25.8312 -3.39101 
